<svg xmlns="http://www.w3.org/2000/svg" viewBox="0 0 103 124" data-testid="series-logo" aria-label="svelte logo"><path fill="#ff3e00" d="M96.33 20.61C85.38 4.93 63.74.28 48.09 10.25L20.61 27.77A31.46 31.46 0 006.37 48.88 33.22 33.22 0 009.64 70.2 31.52 31.52 0 004.93 82a33.61 33.61 0 005.73 25.41c11 15.68 32.6 20.33 48.25 10.36l27.48-17.52a31.48 31.48 0 0014.24-21.11 33.22 33.22 0 00-3.27-21.34 31.52 31.52 0 004.71-11.8 33.57 33.57 0 00-5.74-25.41"></path><path fill="#fff" d="M45.41 108.86A21.81 21.81 0 0122 100.18a20.2 20.2 0 01-3.47-15.28 19 19 0 01.65-2.57l.52-1.58 1.41 1a35.32 35.32 0 0010.75 5.37l1 .31-.1 1a6.2 6.2 0 001.11 4.08A6.57 6.57 0 0041 95.19a6 6 0 001.68-.74l27.43-17.51a5.76 5.76 0 002.59-3.83 6.09 6.09 0 00-1-4.6 6.58 6.58 0 00-7.06-2.62 6.21 6.21 0 00-1.69.74l-10.52 6.68a19.88 19.88 0 01-5.58 2.45 21.82 21.82 0 01-23.43-8.68A20.2 20.2 0 0120 51.8a19 19 0 018.56-12.7L56 21.59a19.88 19.88 0 015.58-2.45A21.81 21.81 0 0185 27.82a20.2 20.2 0 013.47 15.28 19 19 0 01-.65 2.57l-.52 1.58-1.41-1a35.32 35.32 0 00-10.75-5.37l-1-.31.1-1a6.2 6.2 0 00-1.11-4.08 6.57 6.57 0 00-7.06-2.62 6 6 0 00-1.68.74l-27.5 17.45a5.71 5.71 0 00-2.58 3.83 6 6 0 001 4.6 6.58 6.58 0 007.06 2.62 6.21 6.21 0 001.69-.74l10.48-6.68a19.88 19.88 0 015.58-2.45 21.82 21.82 0 0123.43 8.68A20.2 20.2 0 0187 76.2a19 19 0 01-8.56 12.7L51 106.41a19.88 19.88 0 01-5.58 2.45"></path></svg>